<svg width="360" height="60" viewBox="0 0 360 60" fill="none" xmlns="http://www.w3.org/2000/svg">
<path d="M-58.8481 -7.64469C-51.753 -67.0013 380.413 -14.5004 436.468 7.80168C492.524 30.1037 289.152 93.2615 234.802 120.293C178.435 148.151 -64.8198 41.377 -58.8481 -7.64469Z" fill="#7B7FDA"/>
<path d="M59.3879 29.3878C57.9012 -28.6434 351.277 8.14045 414.489 21.4286C477.702 34.7167 354.247 77.0067 300.383 110.848C244.491 145.775 60.4963 77.331 59.3879 29.3878Z" fill="#68BC98"/>
<path d="M-34.2083 21.722C-27.2664 -37.6517 337.149 7.14957 384.17 28.4248C431.191 49.7 258.302 116.322 211.938 144.26C163.854 173.059 -40.036 70.7598 -34.2083 21.722Z" fill="#EA7052"/>
<path d="M-75.1161 50.3302C-69.8485 -7.47868 107.577 49.6445 152.992 69.0768C198.407 88.5091 129.654 126.514 85.9974 154.833C40.7189 184.031 -79.5568 98.0781 -75.1161 50.3302Z" fill="#F9AD6D"/>
<g clip-path="url(#clip0)">
<path d="M68.3323 24.2699C61.3154 31.7889 -48.9787 10.0195 -46.5307 4.28569C-43.7626 -2.19351 38.8312 10.6366 61.1386 17.6725C64.4157 18.704 70.6453 21.8003 68.3323 24.2699Z" fill="#F9AD6D"/>
<path d="M55.603 -0.108217C52.6471 1.74096 58.9047 16.2169 65.1057 22.3739C56.2081 24.8757 42.1322 34.9351 44.7031 39.1936C47.1584 43.2567 68.9377 29.8976 71.9197 24.7346C74.0182 21.129 60.3648 -3.0891 55.603 -0.108217Z" fill="#F9AD6D"/>
</g>
<defs>
<clipPath id="clip0">
<rect width="90.6122" height="41.6327" fill="white" transform="translate(-12.3596 -14.6939) rotate(11.7196)"/>
</clipPath>
</defs>
</svg>
